<svg xmlns="http://www.w3.org/2000/svg" viewBox="0 0 800 600"><rect width="800" height="600" fill="#F7F2E8"/><rect x="150" y="50" width="500" height="500" fill="#1F1D1A" opacity="0.1" transform="translate(8 10)"/><g><rect x="150" y="50" width="200" height="170" fill="#B07A6B"/><rect x="350" y="50" width="300" height="110" fill="#3F4F6B"/><rect x="350" y="160" width="140" height="170" fill="#C9A66B"/><rect x="490" y="160" width="160" height="170" fill="#EDE4D3"/><rect x="150" y="220" width="200" height="110" fill="#9DB5AA"/><rect x="150" y="330" width="120" height="220" fill="#EDE4D3"/><rect x="270" y="330" width="240" height="120" fill="#3F4F6B"/><rect x="510" y="330" width="140" height="220" fill="#B07A6B"/><rect x="270" y="450" width="240" height="100" fill="#C9A66B"/></g><g stroke="#F7F2E8" stroke-width="5" stroke-dasharray="14 10" fill="none"><path d="M150 220 H350 V50 M350 160 H650 M350 160 V330 M490 160 V330 M150 330 H650 M270 330 V550 M510 330 V550 M270 450 H510"/></g><rect x="150" y="50" width="500" height="500" fill="none" stroke="#1F1D1A" stroke-width="3"/></svg>
