<svg xmlns="http://www.w3.org/2000/svg" viewBox="0 0 800 600"><rect width="800" height="600" fill="#F7F2E8"/><rect y="450" width="800" height="150" fill="#EDE4D3"/><ellipse cx="400" cy="500" rx="270" ry="20" fill="#1F1D1A" opacity="0.15"/><path d="M130 250 L200 170 H600 L670 250 Z" fill="#2B3A45"/><rect x="130" y="250" width="540" height="40" fill="#1E2A33"/><rect x="130" y="290" width="540" height="190" fill="#1E2A33"/><rect x="130" y="250" width="540" height="6" fill="#D9E4E1" opacity="0.6"/><rect x="375" y="275" width="50" height="34" rx="6" fill="#C9A66B"/><g fill="#D9E4E1"><ellipse cx="400" cy="195" rx="22" ry="9"/><ellipse cx="400" cy="195" rx="22" ry="9" transform="rotate(60 400 210)"/><ellipse cx="400" cy="195" rx="22" ry="9" transform="rotate(-60 400 210)"/></g><circle cx="400" cy="210" r="8" fill="#C9A66B"/><g fill="#D9E4E1" opacity="0.85"><circle cx="230" cy="385" r="9"/><circle cx="290" cy="385" r="9"/><circle cx="350" cy="385" r="9"/><circle cx="450" cy="385" r="9"/><circle cx="510" cy="385" r="9"/><circle cx="570" cy="385" r="9"/></g><path d="M170 440 H630" stroke="#D9E4E1" stroke-width="3" opacity="0.6"/></svg>
