<svg xmlns="http://www.w3.org/2000/svg" viewBox="0 0 800 600" role="img" aria-hidden="true">
  <rect width="800" height="600" fill="#F7F2E8"/>
  <rect y="450" width="800" height="150" fill="#EDE4D3"/>
  <ellipse cx="400" cy="490" rx="250" ry="30" fill="#1F1D1A" opacity="0.1"/>
  <g transform="translate(400 300) rotate(-8)">
    <rect x="-190" y="-170" width="190" height="170" fill="#B07A6B"/>
    <rect x="0" y="-170" width="190" height="170" fill="#3F4F6B"/>
    <rect x="-190" y="0" width="190" height="170" fill="#C9A66B"/>
    <rect x="0" y="0" width="190" height="170" fill="#9DB5AA"/>
    <path d="M-190 -170 H190 V170 H-190 Z M0 -170 V170 M-190 0 H190" fill="none" stroke="#F7F2E8" stroke-width="5" stroke-dasharray="14 10"/>
  </g>
  <g>
    <path d="M400 300 C340 250 300 230 280 260 C265 285 320 310 400 300 Z" fill="#35564E"/>
    <path d="M400 300 C460 250 500 230 520 260 C535 285 480 310 400 300 Z" fill="#35564E"/>
    <path d="M400 300 C380 350 360 400 340 430" fill="none" stroke="#35564E" stroke-width="22" stroke-linecap="round"/>
    <path d="M400 300 C420 350 440 400 460 430" fill="none" stroke="#35564E" stroke-width="22" stroke-linecap="round"/>
    <circle cx="400" cy="300" r="26" fill="#1F1D1A"/>
  </g>
</svg>
